<svg xmlns="http://www.w3.org/2000/svg" xmlns:xlink="http://www.w3.org/1999/xlink" width="1920" zoomAndPan="magnify" viewBox="0 0 1440 809.999993" height="1080" preserveAspectRatio="xMidYMid meet" version="1.0"><defs><clipPath id="ae1a848ace"><path d="M 171 616 L 339.214844 616 L 339.214844 801 L 171 801 Z M 171 616 " clip-rule="nonzero"/></clipPath><clipPath id="05e8eaaeed"><path d="M 701 616 L 868 616 L 868 801 L 701 801 Z M 701 616 " clip-rule="nonzero"/></clipPath><clipPath id="1d92418fd0"><path d="M 894.496094 620 L 1040 620 L 1040 801 L 894.496094 801 Z M 894.496094 620 " clip-rule="nonzero"/></clipPath><clipPath id="47e487f4de"><path d="M 42 77.152344 L 347.472656 77.152344 L 347.472656 124.390625 L 42 124.390625 Z M 463.503906 226.328125 L 464 226.328125 L 464 276.078125 L 463.503906 276.078125 Z M 218.1875 465.636719 L 464 465.636719 L 464 501.695312 L 218.1875 501.695312 Z M 218.1875 465.636719 " clip-rule="nonzero"/></clipPath><clipPath id="925709ecfd"><path d="M 738.417969 124.390625 L 937 124.390625 L 937 166.660156 L 738.417969 166.660156 Z M 520 226.328125 L 937 226.328125 L 937 276.078125 L 520 276.078125 Z M 520 226.328125 " clip-rule="nonzero"/></clipPath><clipPath id="067ac33341"><path d="M 1053.59375 77.152344 L 1277.363281 77.152344 L 1277.363281 124.390625 L 1053.59375 124.390625 Z M 1208.394531 276.078125 L 1404.164062 276.078125 L 1404.164062 303.40625 L 1208.394531 303.40625 Z M 1004.355469 479.929688 L 1419 479.929688 L 1419 523.449219 L 1004.355469 523.449219 Z M 1004.355469 479.929688 " clip-rule="nonzero"/></clipPath><clipPath id="4ecb97625e"><path d="M 127.433594 663.921875 L 180.949219 663.921875 L 180.949219 695.035156 L 127.433594 695.035156 Z M 127.433594 663.921875 " clip-rule="nonzero"/></clipPath><clipPath id="3211eccc32"><path d="M 209 663.921875 L 292.773438 663.921875 L 292.773438 695.035156 L 209 695.035156 Z M 209 663.921875 " clip-rule="nonzero"/></clipPath><clipPath id="0ae0c19641"><path d="M 414.609375 753.429688 L 526.992188 753.429688 L 526.992188 778.296875 L 414.609375 778.296875 Z M 414.609375 753.429688 " clip-rule="nonzero"/></clipPath><clipPath id="c07173aad0"><path d="M 613 753.429688 L 696.796875 753.429688 L 696.796875 778.296875 L 613 778.296875 Z M 613 753.429688 " clip-rule="nonzero"/></clipPath><clipPath id="fa18073032"><path d="M 827.339844 695.035156 L 906 695.035156 L 906 721.105469 L 827.339844 721.105469 Z M 827.339844 695.035156 " clip-rule="nonzero"/></clipPath><clipPath id="104cb68c6b"><path d="M 932 695.035156 L 1076.910156 695.035156 L 1076.910156 721.105469 L 932 721.105469 Z M 932 695.035156 " clip-rule="nonzero"/></clipPath><clipPath id="43aaf0420e"><path d="M 1171.699219 783.265625 L 1255 783.265625 L 1255 797 L 1171.699219 797 Z M 1171.699219 783.265625 " clip-rule="nonzero"/></clipPath><clipPath id="20b9cab0e9"><path d="M 1365.898438 681.328125 L 1440 681.328125 L 1440 708.75 L 1365.898438 708.75 Z M 1291.511719 783.265625 L 1432.75 783.265625 L 1432.75 797 L 1291.511719 797 Z M 1291.511719 783.265625 " clip-rule="nonzero"/></clipPath><clipPath id="f5a7048f88"><path d="M 377 400 L 595 400 L 595 604 L 377 604 Z M 377 400 " clip-rule="nonzero"/></clipPath><clipPath id="85f7c72610"><path d="M 352.410156 412.425781 L 575.808594 385.65625 L 598.921875 578.523438 L 375.519531 605.292969 Z M 352.410156 412.425781 " clip-rule="nonzero"/></clipPath><clipPath id="78d79912a3"><path d="M 352.410156 412.425781 L 575.808594 385.65625 L 598.921875 578.523438 L 375.519531 605.292969 Z M 352.410156 412.425781 " clip-rule="nonzero"/></clipPath><clipPath id="9a979a4966"><path d="M 352.410156 412.425781 L 575.808594 385.65625 L 598.921875 578.523438 L 375.519531 605.292969 Z M 352.410156 412.425781 " clip-rule="nonzero"/></clipPath><clipPath id="f050416d92"><path d="M 461 456 L 491 456 L 491 536 L 461 536 Z M 461 456 " clip-rule="nonzero"/></clipPath><clipPath id="1155d934e5"><path d="M 352.410156 412.425781 L 575.808594 385.65625 L 598.921875 578.523438 L 375.519531 605.292969 Z M 352.410156 412.425781 " clip-rule="nonzero"/></clipPath><clipPath id="0ee9616c88"><path d="M 352.410156 412.425781 L 575.808594 385.65625 L 598.921875 578.523438 L 375.519531 605.292969 Z M 352.410156 412.425781 " clip-rule="nonzero"/></clipPath><clipPath id="e50059e195"><path d="M 352.410156 412.425781 L 575.808594 385.65625 L 598.921875 578.523438 L 375.519531 605.292969 Z M 352.410156 412.425781 " clip-rule="nonzero"/></clipPath></defs><path fill="#0a0a0a" d="M 238.769531 536.652344 L 364.269531 536.652344 L 364.269531 501.703125 L 238.515625 501.703125 Z M 364.269531 332.234375 L 364.269531 208.304688 L 253.429688 208.304688 L 239.597656 332.234375 L 138.519531 332.234375 L 232.574219 124.390625 L 105.292969 124.390625 L 5.671875 342.261719 L 5.671875 423.605469 L 237.953125 423.605469 L 238.246094 465.636719 L 364.269531 465.636719 L 364.269531 423.605469 L 426.210938 423.605469 L 426.210938 332.234375 Z M 162.171875 0.0117188 L 126.890625 77.144531 L 253.984375 77.144531 L 271.367188 38.71875 L 162.171875 0.0117188 " fill-opacity="1" fill-rule="nonzero"/><path fill="#0a0a0a" d="M 887.476562 166.640625 L 759.335938 166.640625 C 762.4375 182.832031 764.554688 202.738281 765.746094 226.316406 L 896.835938 226.316406 C 895.011719 204.949219 891.878906 185.074219 887.476562 166.640625 Z M 845.519531 72.816406 C 809.902344 25.859375 758.433594 2.359375 691.085938 2.359375 C 623.6875 2.359375 572.230469 25.859375 536.644531 72.816406 C 508.003906 110.621094 490.882812 161.757812 485.289062 226.316406 L 616.417969 226.316406 C 617.652344 202.601562 619.855469 182.652344 623.019531 166.496094 C 628.164062 140.171875 636.191406 121.332031 647.078125 109.992188 C 657.933594 98.625 672.582031 92.945312 691.085938 92.945312 C 709.550781 92.945312 724.199219 98.363281 735.085938 109.207031 C 739.121094 113.199219 742.703125 118.273438 745.910156 124.390625 L 874.285156 124.390625 C 866.519531 105.070312 856.933594 87.882812 845.519531 72.816406 Z M 766.867188 276.070312 C 766.867188 322.875 764.300781 359.53125 759.113281 386.050781 C 753.960938 412.636719 745.941406 431.476562 735.085938 442.550781 C 724.199219 453.671875 709.550781 459.222656 691.085938 459.222656 C 672.582031 459.222656 657.933594 453.523438 647.078125 442.1875 C 636.191406 430.835938 628.164062 411.859375 623.019531 385.265625 C 617.84375 358.746094 615.265625 322.351562 615.265625 276.070312 L 483.234375 276.070312 C 483.277344 363.636719 501.070312 431.140625 536.644531 478.578125 C 572.230469 526.054688 623.6875 549.820312 691.085938 549.820312 C 758.433594 549.820312 809.902344 526.054688 845.519531 478.578125 C 881.0625 431.140625 898.847656 363.636719 898.898438 276.070312 L 766.867188 276.070312 " fill-opacity="1" fill-rule="nonzero"/><path fill="#0a0a0a" d="M 1117.292969 0.0117188 L 1082.042969 77.144531 L 1209.148438 77.144531 L 1226.523438 38.71875 Z M 1193.828125 523.449219 L 1193.921875 536.652344 L 1319.425781 536.652344 L 1319.425781 523.449219 Z M 1319.425781 332.234375 L 1319.425781 303.40625 L 1197.957031 303.40625 L 1194.710938 332.234375 L 1093.683594 332.234375 L 1187.742188 124.390625 L 1060.445312 124.390625 L 960.835938 342.261719 L 960.835938 423.605469 L 1193.105469 423.605469 L 1193.523438 479.917969 L 1319.425781 479.917969 L 1319.425781 423.605469 L 1381.375 423.605469 L 1381.375 332.234375 Z M 1208.59375 208.304688 L 1201.027344 276.070312 L 1319.425781 276.070312 L 1319.425781 208.304688 L 1208.59375 208.304688 " fill-opacity="1" fill-rule="nonzero"/><path fill="#0a0a0a" d="M 103.761719 695.035156 C 103.953125 714.617188 105.859375 735.398438 109.621094 757.402344 L 54.796875 620.710938 L 0.234375 620.710938 L 0.234375 796.78125 L 39.277344 796.78125 L 39.277344 732.253906 C 39.277344 718.203125 38.796875 706.046875 37.789062 695.789062 C 36.824219 685.53125 35.441406 673.710938 33.652344 660.359375 L 87.132812 796.78125 L 143.035156 796.78125 L 143.035156 695.035156 Z M 103.730469 620.710938 L 103.730469 663.933594 L 143.035156 663.933594 L 143.035156 620.710938 L 103.730469 620.710938 " fill-opacity="1" fill-rule="nonzero"/><g clip-path="url(#ae1a848ace)"><path fill="#0a0a0a" d="M 316.980469 640.515625 C 302.289062 624.441406 281.730469 616.382812 255.335938 616.382812 C 238.066406 616.382812 223.144531 620.070312 210.695312 627.425781 C 198.195312 634.8125 188.609375 645.4375 181.933594 659.3125 C 181.1875 660.84375 180.519531 662.371094 179.878906 663.933594 L 225.722656 663.933594 C 226.164062 663.085938 226.644531 662.257812 227.136719 661.472656 C 233.289062 651.738281 242.6875 646.886719 255.335938 646.886719 C 268.015625 646.886719 277.445312 651.707031 283.679688 661.367188 C 289.945312 671.027344 293.039062 686.765625 293.039062 708.613281 C 293.039062 730.460938 289.976562 746.285156 283.828125 756.019531 C 277.675781 765.753906 268.203125 770.59375 255.335938 770.59375 C 242.875 770.59375 233.507812 765.710938 227.253906 755.863281 C 221.019531 746.066406 217.925781 730.285156 217.925781 708.613281 C 217.925781 703.804688 218.074219 699.257812 218.410156 695.035156 L 172.535156 695.035156 C 172.125 699.402344 171.90625 703.921875 171.90625 708.613281 C 171.90625 728.125 175.257812 744.753906 181.933594 758.554688 C 188.609375 772.355469 198.195312 782.90625 210.695312 790.179688 C 223.144531 797.453125 238.066406 801.109375 255.335938 801.109375 C 272.636719 801.109375 287.558594 797.421875 300.121094 790.03125 C 312.695312 782.675781 322.316406 772.050781 329.019531 758.1875 C 335.695312 744.273438 339.058594 727.75 339.058594 708.613281 C 339.058594 679.304688 331.671875 656.628906 316.980469 640.515625 " fill-opacity="1" fill-rule="nonzero"/></g><path fill="#0a0a0a" d="M 395.75 778.285156 L 395.75 796.78125 L 439.613281 796.78125 L 439.613281 778.285156 Z M 347.863281 620.710938 L 347.863281 652.710938 L 395.75 652.710938 L 395.75 753.441406 L 439.613281 753.441406 L 439.613281 652.710938 L 485.328125 652.710938 L 489.617188 620.710938 L 347.863281 620.710938 " fill-opacity="1" fill-rule="nonzero"/><path fill="#0a0a0a" d="M 576.515625 778.285156 L 576.515625 796.78125 L 620.378906 796.78125 L 620.378906 778.285156 Z M 682.390625 650.4375 L 686.949219 620.710938 L 576.515625 620.710938 L 576.515625 753.441406 L 620.378906 753.441406 L 620.378906 726.929688 L 674.375 726.929688 L 674.375 697.203125 L 620.378906 697.203125 L 620.378906 650.4375 L 682.390625 650.4375 " fill-opacity="1" fill-rule="nonzero"/><g clip-path="url(#05e8eaaeed)"><path fill="#0a0a0a" d="M 821.839844 721.105469 C 820.875 736.625 817.960938 748.265625 813.039062 756.019531 C 806.886719 765.753906 797.371094 770.59375 784.546875 770.59375 C 772.085938 770.59375 762.730469 765.710938 756.464844 755.863281 C 750.238281 746.066406 747.09375 730.285156 747.09375 708.613281 C 747.09375 686.945312 750.1875 671.214844 756.359375 661.472656 C 762.507812 651.738281 771.898438 646.886719 784.546875 646.886719 C 797.226562 646.886719 806.667969 651.707031 812.890625 661.367188 C 817.773438 668.902344 820.71875 680.082031 821.765625 695.035156 L 867.671875 695.035156 C 865.734375 672.210938 858.535156 654.050781 846.191406 640.515625 C 831.5 624.441406 810.953125 616.382812 784.546875 616.382812 C 767.277344 616.382812 752.355469 620.070312 739.898438 627.425781 C 727.417969 634.8125 717.828125 645.4375 711.144531 659.3125 C 704.46875 673.21875 701.117188 689.628906 701.117188 708.613281 C 701.117188 728.125 704.46875 744.753906 711.144531 758.554688 C 717.828125 772.355469 727.417969 782.90625 739.898438 790.179688 C 752.355469 797.453125 767.277344 801.109375 784.546875 801.109375 C 801.855469 801.109375 816.769531 797.421875 829.34375 790.03125 C 841.90625 782.675781 851.554688 772.050781 858.242188 758.1875 C 863.417969 747.40625 866.59375 735.019531 867.746094 721.105469 L 821.839844 721.105469 " fill-opacity="1" fill-rule="nonzero"/></g><g clip-path="url(#1d92418fd0)"><path fill="#0a0a0a" d="M 995.5625 721.105469 L 995.5625 736.550781 C 995.5625 747.929688 993.28125 756.355469 988.730469 761.835938 C 984.183594 767.359375 976.910156 770.113281 966.914062 770.113281 C 957.105469 770.113281 949.949219 767.359375 945.402344 761.835938 C 940.84375 756.355469 938.570312 747.929688 938.570312 736.550781 L 938.570312 721.105469 L 894.707031 721.105469 L 894.707031 738.34375 C 894.707031 757.464844 900.867188 772.722656 913.179688 784.058594 C 925.484375 795.429688 943.390625 801.109375 966.914062 801.109375 C 982.613281 801.109375 995.898438 798.382812 1006.785156 792.976562 C 1017.640625 787.570312 1025.804688 780.109375 1031.253906 770.59375 C 1036.660156 761.121094 1039.386719 750.382812 1039.386719 738.34375 L 1039.386719 721.105469 Z M 995.5625 620.710938 L 995.5625 695.035156 L 1039.386719 695.035156 L 1039.386719 620.710938 Z M 894.707031 620.710938 L 894.707031 695.035156 L 938.570312 695.035156 L 938.570312 620.710938 L 894.707031 620.710938 " fill-opacity="1" fill-rule="nonzero"/></g><path fill="#0a0a0a" d="M 1177.933594 620.710938 L 1177.933594 691.828125 C 1177.933594 712.34375 1179.871094 734.191406 1183.789062 757.402344 L 1128.964844 620.710938 L 1074.4375 620.710938 L 1074.4375 796.78125 L 1113.488281 796.78125 L 1113.488281 732.253906 C 1113.488281 718.203125 1112.964844 706.046875 1111.992188 695.789062 C 1111.027344 685.53125 1109.644531 673.710938 1107.851562 660.359375 L 1156.03125 783.273438 L 1217.238281 783.273438 L 1217.238281 620.710938 L 1177.933594 620.710938 " fill-opacity="1" fill-rule="nonzero"/><path fill="#0a0a0a" d="M 1357.097656 708.773438 C 1356.992188 730.285156 1353.21875 745.269531 1345.875 753.703125 C 1338.382812 762.285156 1327.410156 766.53125 1312.980469 766.53125 L 1298.5 766.53125 L 1298.5 650.960938 L 1312.414062 650.960938 C 1321.886719 650.960938 1329.789062 652.523438 1336.210938 655.65625 C 1342.625 658.800781 1347.738281 664.5 1351.46875 672.777344 C 1352.621094 675.3125 1353.597656 678.144531 1354.371094 681.316406 L 1400.246094 681.316406 C 1396.621094 662.152344 1388.605469 648.164062 1376.1875 639.394531 C 1358.625 626.945312 1335.3125 620.710938 1306.265625 620.710938 L 1254.6875 620.710938 L 1254.6875 783.273438 L 1367.238281 783.273438 C 1370.632812 781.335938 1373.808594 779.175781 1376.867188 776.828125 C 1393.832031 763.660156 1402.414062 740.953125 1402.550781 708.773438 L 1357.097656 708.773438 " fill-opacity="1" fill-rule="nonzero"/><g clip-path="url(#47e487f4de)"><path fill="#0a0a0a" d="M 401.5625 423.585938 L 401.5625 536.640625 L 276.050781 536.640625 L 275.234375 423.585938 L 42.964844 423.585938 L 42.964844 342.28125 L 199.441406 0.0195312 L 308.652344 38.738281 L 175.8125 332.214844 L 276.867188 332.214844 L 290.722656 208.324219 L 401.5625 208.324219 L 401.5625 332.214844 L 463.503906 332.214844 L 463.503906 423.585938 L 401.5625 423.585938 " fill-opacity="1" fill-rule="nonzero"/></g><g clip-path="url(#925709ecfd)"><path fill="#0a0a0a" d="M 684.359375 109.984375 C 673.484375 121.34375 665.476562 140.183594 660.3125 166.503906 C 655.144531 192.835938 652.566406 229.230469 652.566406 275.691406 C 652.566406 322.152344 655.144531 358.683594 660.3125 385.253906 C 665.476562 411.851562 673.484375 430.828125 684.359375 442.175781 C 695.214844 453.535156 709.886719 459.203125 728.359375 459.203125 C 746.824219 459.203125 761.503906 453.671875 772.378906 442.5625 C 783.234375 431.464844 791.253906 412.625 796.417969 386.03125 C 801.574219 359.445312 804.160156 322.667969 804.160156 275.691406 C 804.160156 228.714844 801.574219 191.9375 796.417969 165.339844 C 791.253906 138.769531 783.234375 120.054688 772.378906 109.207031 C 761.503906 98.363281 746.824219 92.945312 728.359375 92.945312 C 709.886719 92.945312 695.214844 98.636719 684.359375 109.984375 Z M 882.8125 72.816406 C 918.390625 119.792969 936.179688 187.410156 936.179688 275.691406 C 936.179688 363.460938 918.390625 431.066406 882.8125 478.566406 C 847.207031 526.066406 795.726562 549.800781 728.359375 549.800781 C 660.992188 549.800781 609.5 526.066406 573.925781 478.566406 C 538.332031 431.066406 520.546875 363.460938 520.546875 275.691406 C 520.546875 187.410156 538.332031 119.792969 573.925781 72.816406 C 609.5 25.839844 660.992188 2.347656 728.359375 2.347656 C 795.726562 2.347656 847.207031 25.839844 882.8125 72.816406 " fill-opacity="1" fill-rule="nonzero"/></g><g clip-path="url(#067ac33341)"><path fill="#0a0a0a" d="M 1356.71875 423.585938 L 1356.71875 536.640625 L 1231.207031 536.640625 L 1230.398438 423.585938 L 998.121094 423.585938 L 998.121094 342.28125 L 1154.609375 0.0195312 L 1263.816406 38.738281 L 1130.96875 332.214844 L 1232.023438 332.214844 L 1245.875 208.324219 L 1356.71875 208.324219 L 1356.71875 332.214844 L 1418.65625 332.214844 L 1418.65625 423.585938 L 1356.71875 423.585938 " fill-opacity="1" fill-rule="nonzero"/></g><g clip-path="url(#4ecb97625e)"><path fill="#0a0a0a" d="M 124.4375 796.78125 L 70.953125 660.339844 C 72.734375 673.722656 74.117188 685.539062 75.105469 695.789062 C 76.078125 706.035156 76.570312 718.179688 76.570312 732.242188 L 76.570312 796.78125 L 37.527344 796.78125 L 37.527344 620.710938 L 92.078125 620.710938 L 146.902344 757.402344 C 142.972656 734.191406 141.015625 712.34375 141.015625 691.847656 L 141.015625 620.710938 L 180.328125 620.710938 L 180.328125 796.78125 L 124.4375 796.78125 " fill-opacity="1" fill-rule="nonzero"/></g><g clip-path="url(#3211eccc32)"><path fill="#0a0a0a" d="M 264.429688 661.480469 C 258.28125 671.226562 255.210938 686.933594 255.210938 708.613281 C 255.210938 730.292969 258.320312 746.054688 264.554688 755.871094 C 270.800781 765.703125 280.160156 770.617188 292.640625 770.617188 C 305.476562 770.617188 314.96875 765.742188 321.121094 756 C 327.269531 746.265625 330.351562 730.460938 330.351562 708.613281 C 330.351562 686.765625 327.230469 671.015625 320.984375 661.355469 C 314.75 651.707031 305.296875 646.875 292.640625 646.875 C 279.980469 646.875 270.570312 651.746094 264.429688 661.480469 Z M 354.273438 640.523438 C 368.984375 656.621094 376.34375 679.316406 376.34375 708.613281 C 376.34375 727.757812 373 744.273438 366.3125 758.15625 C 359.628906 772.050781 350 782.675781 337.433594 790.042969 C 324.859375 797.421875 309.929688 801.097656 292.640625 801.097656 C 275.347656 801.097656 260.460938 797.453125 247.980469 790.179688 C 235.5 782.898438 225.921875 772.355469 219.238281 758.546875 C 212.550781 744.734375 209.207031 728.105469 209.207031 708.613281 C 209.207031 689.648438 212.550781 673.21875 219.238281 659.324219 C 225.921875 645.4375 235.5 634.804688 247.980469 627.4375 C 260.460938 620.070312 275.347656 616.390625 292.640625 616.390625 C 319.023438 616.390625 339.574219 624.429688 354.273438 640.523438 " fill-opacity="1" fill-rule="nonzero"/></g><g clip-path="url(#0ae0c19641)"><path fill="#0a0a0a" d="M 476.882812 652.722656 L 476.882812 796.78125 L 433.03125 796.78125 L 433.03125 652.722656 L 385.164062 652.722656 L 385.164062 620.710938 L 526.898438 620.710938 L 522.613281 652.722656 L 476.882812 652.722656 " fill-opacity="1" fill-rule="nonzero"/></g><g clip-path="url(#c07173aad0)"><path fill="#0a0a0a" d="M 657.660156 650.4375 L 657.660156 697.183594 L 711.679688 697.183594 L 711.679688 726.910156 L 657.660156 726.910156 L 657.660156 796.78125 L 613.796875 796.78125 L 613.796875 620.710938 L 724.242188 620.710938 L 719.703125 650.4375 L 657.660156 650.4375 " fill-opacity="1" fill-rule="nonzero"/></g><g clip-path="url(#fa18073032)"><path fill="#0a0a0a" d="M 793.632812 661.480469 C 787.480469 671.226562 784.410156 686.933594 784.410156 708.613281 C 784.410156 730.292969 787.523438 746.054688 793.765625 755.871094 C 800.011719 765.703125 809.371094 770.617188 821.851562 770.617188 C 834.6875 770.617188 844.179688 765.742188 850.332031 756 C 856.480469 746.265625 859.5625 730.460938 859.5625 708.613281 C 859.5625 686.765625 856.441406 671.015625 850.195312 661.355469 C 843.960938 651.707031 834.507812 646.875 821.851562 646.875 C 809.191406 646.875 799.792969 651.746094 793.632812 661.480469 Z M 883.484375 640.523438 C 898.195312 656.621094 905.550781 679.316406 905.550781 708.613281 C 905.550781 727.757812 902.210938 744.273438 895.523438 758.15625 C 888.851562 772.050781 879.210938 782.675781 866.636719 790.042969 C 854.070312 797.421875 839.140625 801.097656 821.851562 801.097656 C 804.558594 801.097656 789.671875 797.453125 777.191406 790.179688 C 764.710938 782.898438 755.132812 772.355469 748.445312 758.546875 C 741.761719 744.734375 738.417969 728.105469 738.417969 708.613281 C 738.417969 689.648438 741.761719 673.21875 748.445312 659.324219 C 755.132812 645.4375 764.710938 634.804688 777.191406 627.4375 C 789.671875 620.070312 804.558594 616.390625 821.851562 616.390625 C 848.234375 616.390625 868.785156 624.429688 883.484375 640.523438 " fill-opacity="1" fill-rule="nonzero"/></g><g clip-path="url(#104cb68c6b)"><path fill="#0a0a0a" d="M 1068.535156 770.617188 C 1063.097656 780.097656 1054.945312 787.558594 1044.070312 792.976562 C 1033.191406 798.382812 1019.917969 801.097656 1004.230469 801.097656 C 980.695312 801.097656 962.777344 795.429688 950.472656 784.082031 C 938.171875 772.734375 932.023438 757.488281 932.023438 738.34375 L 932.023438 620.710938 L 975.886719 620.710938 L 975.886719 736.5625 C 975.886719 747.910156 978.148438 756.332031 982.695312 761.847656 C 987.242188 767.359375 994.410156 770.101562 1004.230469 770.101562 C 1014.207031 770.101562 1021.476562 767.359375 1026.023438 761.847656 C 1030.5625 756.332031 1032.835938 747.910156 1032.835938 736.5625 L 1032.835938 620.710938 L 1076.699219 620.710938 L 1076.699219 738.34375 C 1076.699219 750.371094 1073.976562 761.121094 1068.535156 770.617188 " fill-opacity="1" fill-rule="nonzero"/></g><g clip-path="url(#43aaf0420e)"><path fill="#0a0a0a" d="M 1198.640625 796.78125 L 1145.144531 660.339844 C 1146.925781 673.722656 1148.308594 685.539062 1149.296875 695.789062 C 1150.28125 706.035156 1150.761719 718.179688 1150.761719 732.242188 L 1150.761719 796.78125 L 1111.730469 796.78125 L 1111.730469 620.710938 L 1166.269531 620.710938 L 1221.09375 757.402344 C 1217.175781 734.191406 1215.214844 712.34375 1215.214844 691.847656 L 1215.214844 620.710938 L 1254.53125 620.710938 L 1254.53125 796.78125 L 1198.640625 796.78125 " fill-opacity="1" fill-rule="nonzero"/></g><g clip-path="url(#20b9cab0e9)"><path fill="#0a0a0a" d="M 1335.8125 766.550781 L 1350.253906 766.550781 C 1364.691406 766.550781 1375.652344 762.265625 1383.144531 753.714844 C 1390.636719 745.164062 1394.378906 729.875 1394.378906 707.859375 C 1394.378906 692.78125 1392.503906 681.097656 1388.761719 672.789062 C 1385.019531 664.5 1379.9375 658.777344 1373.515625 655.644531 C 1367.101562 652.511719 1359.171875 650.941406 1349.71875 650.941406 L 1335.8125 650.941406 Z M 1413.503906 639.382812 C 1431.054688 651.820312 1439.84375 674.652344 1439.84375 707.859375 C 1439.84375 740.554688 1431.285156 763.542969 1414.171875 776.839844 C 1397.050781 790.128906 1374.855469 796.78125 1347.582031 796.78125 L 1291.960938 796.78125 L 1291.960938 620.710938 L 1343.566406 620.710938 C 1372.625 620.710938 1395.941406 626.933594 1413.503906 639.382812 " fill-opacity="1" fill-rule="nonzero"/></g><g clip-path="url(#f5a7048f88)"><g clip-path="url(#85f7c72610)"><g clip-path="url(#78d79912a3)"><g clip-path="url(#9a979a4966)"><path fill="#ee4131" d="M 454.855469 408.09375 L 378.03125 587.097656 C 374.429688 595.484375 381.28125 604.609375 390.359375 603.519531 L 584.125 580.304688 C 593.207031 579.214844 597.707031 568.730469 592.226562 561.429688 L 475.285156 405.648438 C 469.804688 398.347656 458.457031 399.707031 454.855469 408.09375 Z M 454.855469 408.09375 " fill-opacity="1" fill-rule="nonzero"/></g></g></g></g><g clip-path="url(#f050416d92)"><g clip-path="url(#1155d934e5)"><g clip-path="url(#0ee9616c88)"><g clip-path="url(#e50059e195)"><path fill="#ffffff" d="M 468.609375 526.972656 C 467.929688 521.304688 471.878906 516.542969 478.121094 515.796875 C 484.363281 515.046875 489.328125 518.738281 490.007812 524.410156 C 490.675781 529.96875 486.761719 535.0625 480.519531 535.808594 C 474.277344 536.558594 469.273438 532.535156 468.609375 526.972656 Z M 464.316406 457.902344 L 477.859375 456.277344 C 479.804688 456.046875 481.539062 457.503906 481.640625 459.457031 L 483.914062 503.707031 C 484.011719 505.601562 482.621094 507.25 480.734375 507.476562 L 473.621094 508.328125 C 471.730469 508.554688 469.992188 507.285156 469.640625 505.417969 L 461.394531 461.882812 C 461.03125 459.960938 462.371094 458.132812 464.316406 457.902344 Z M 464.316406 457.902344 " fill-opacity="1" fill-rule="nonzero"/></g></g></g></g></svg>