<svg xmlns="http://www.w3.org/2000/svg" width="500" height="500" version="1.0" viewBox="0 0 375 375"><defs><clipPath id="a"><path d="M187.5 0C83.945 0 0 83.945 0 187.5S83.945 375 187.5 375 375 291.055 375 187.5 291.055 0 187.5 0Zm0 0"/></clipPath><clipPath id="b"><path d="M68 111h203v68.969H68Zm0 0"/></clipPath></defs><g clip-path="url(#a)"><path fill="#fff" d="M-37.5-37.5h450v450h-450z"/><path fill="none" stroke="#ff1616" stroke-width="1.5" d="M187.5 0C83.945 0 0 83.945 0 187.5S83.945 375 187.5 375 375 291.055 375 187.5 291.055 0 187.5 0Zm0 0"/></g><g clip-path="url(#b)"><path fill="#ff1616" fill-rule="evenodd" d="m71.508 179.035 97.59-63.137 97.586 63.137a2.178 2.178 0 1 0 2.367-3.66l-98.77-63.902a2.183 2.183 0 0 0-2.367 0l-98.773 63.902a2.178 2.178 0 1 0 2.367 3.66Zm0 0"/></g><path fill="#ff1616" fill-rule="evenodd" d="m193.223 128.809 17.949-11.614 92.266 60.528c1.007.66 2.359.379 3.019-.625a2.18 2.18 0 0 0-.629-3.02l-93.45-61.305a2.18 2.18 0 0 0-2.378-.011l-19.145 12.386a2.178 2.178 0 0 0-.644 3.016 2.18 2.18 0 0 0 3.012.645ZM124.516 142.785V126.32c0-1.199-.977-2.172-2.172-2.172h-18.16a2.167 2.167 0 0 0-2.172 2.172v28.977a2.172 2.172 0 0 0 4.344 0v-26.809h13.812v14.297a2.175 2.175 0 0 0 4.348 0Zm0 0"/><path fill="#ff1616" d="M78.924 185.06h5.062c.207 0 .383.073.532.218a.735.735 0 0 1 .218.531v18.094c0 .2-.074.375-.218.531a.72.72 0 0 1-.532.219h-4.421c-.493 0-.875-.21-1.157-.64l-4.718-7.141v7.031a.73.73 0 0 1-.235.531.72.72 0 0 1-.531.219H67.86a.745.745 0 0 1-.766-.75v-18.094a.72.72 0 0 1 .22-.531.777.777 0 0 1 .546-.219h4.422c.52 0 .899.215 1.14.64l4.735 7.75v-7.64a.72.72 0 0 1 .22-.531.777.777 0 0 1 .546-.219ZM95.107 199.2h8.625a.72.72 0 0 1 .516.219.706.706 0 0 1 .234.53v3.954a.73.73 0 0 1-.234.531.704.704 0 0 1-.516.219H89.14a.745.745 0 0 1-.766-.75v-18.094a.72.72 0 0 1 .219-.531.777.777 0 0 1 .547-.219h14.359c.207 0 .383.074.531.219a.706.706 0 0 1 .235.531v3.953a.73.73 0 0 1-.235.532.72.72 0 0 1-.531.218h-8.39v1.766h7.78c.196 0 .368.078.516.234.156.149.235.32.235.516v3.64c0 .212-.079.391-.235.548a.704.704 0 0 1-.515.218h-7.782ZM114.299 204.653h-5.703a.745.745 0 0 1-.766-.75v-18.094a.72.72 0 0 1 .219-.531.777.777 0 0 1 .547-.219h5.703c.207 0 .383.074.531.219a.706.706 0 0 1 .235.531v18.094a.73.73 0 0 1-.235.531.72.72 0 0 1-.531.219ZM128.755 192.84h7.703a.72.72 0 0 1 .516.22.706.706 0 0 1 .234.53v3.641c0 2.469-.882 4.371-2.64 5.703-1.75 1.336-4.09 2-7.016 2-2.918 0-5.215-.644-6.89-1.937-1.68-1.301-2.516-3.25-2.516-5.844v-4.703c0-2.488.851-4.39 2.562-5.703 1.72-1.313 4.008-1.969 6.875-1.969 2.875 0 5.196.605 6.97 1.813 1.769 1.199 2.655 2.671 2.655 4.421a.598.598 0 0 1-.187.438.558.558 0 0 1-.422.187h-6.187c-.375 0-.649-.101-.813-.312-.375-.488-.656-.77-.844-.844-.43-.164-.82-.25-1.172-.25-1.437 0-2.156.703-2.156 2.11v4.75c0 1.585.766 2.375 2.297 2.375 1.563 0 2.344-.672 2.344-2.016h-1.313a.76.76 0 0 1-.547-.219.707.707 0 0 1-.218-.531v-3.11a.72.72 0 0 1 .218-.53.777.777 0 0 1 .547-.22ZM152.575 185.06h5.484c.207 0 .383.073.531.218a.706.706 0 0 1 .235.531v18.094a.73.73 0 0 1-.235.531.72.72 0 0 1-.53.219h-5.485a.707.707 0 0 1-.532-.219.745.745 0 0 1-.218-.531v-6.047h-4.547v6.047c0 .2-.074.375-.219.531a.72.72 0 0 1-.531.219h-5.485a.798.798 0 0 1-.546-.203.73.73 0 0 1-.22-.547v-18.094a.72.72 0 0 1 .22-.531.777.777 0 0 1 .546-.219h5.485c.207 0 .383.074.531.219a.735.735 0 0 1 .219.531v5.875h4.547v-5.875a.72.72 0 0 1 .218-.531.722.722 0 0 1 .532-.219ZM172.654 192.06c.195-.25.297-.54.297-.876 0-.332-.102-.633-.297-.906-.188-.27-.469-.406-.844-.406h-2.36v2.547h2.36c.375 0 .656-.118.844-.36Zm-3.203 5.03v2.75h2.61c.425 0 .75-.144.968-.437.219-.289.328-.613.328-.969v-.031c0-.352-.121-.66-.36-.922-.23-.258-.542-.39-.937-.39Zm3.344 7.563h-9.579a.745.745 0 0 1-.766-.75v-18.094a.72.72 0 0 1 .22-.531.777.777 0 0 1 .546-.219h9.297c2.645 0 4.598.48 5.86 1.438 1.257.96 1.89 2.414 1.89 4.36v.077c0 .805-.234 1.516-.703 2.14-.46.626-.969 1.079-1.531 1.36.75.305 1.379.836 1.89 1.594.508.75.766 1.574.766 2.469 0 4.105-2.633 6.156-7.89 6.156ZM185.632 186.856c1.707-1.383 3.968-2.078 6.78-2.078 2.821 0 5.087.7 6.798 2.094 1.707 1.386 2.562 3.34 2.562 5.86v4.359c0 2.562-.851 4.511-2.547 5.843-1.687 1.336-3.96 2-6.812 2-2.856 0-5.125-.664-6.813-2-1.687-1.332-2.531-3.281-2.531-5.843v-4.36c0-2.539.852-4.5 2.563-5.875Zm5.265 12.063c.375.367.88.547 1.516.547.633 0 1.14-.18 1.515-.547.375-.375.563-.946.563-1.72v-4.702c0-.739-.188-1.301-.563-1.688-.375-.383-.882-.578-1.515-.578-.637 0-1.14.195-1.516.578-.367.387-.547.95-.547 1.688v4.703c0 .773.18 1.344.547 1.719ZM222.884 203.731c.05.117.078.242.078.375 0 .125-.062.25-.187.375a.589.589 0 0 1-.438.172h-5.734c-.575 0-.977-.25-1.203-.75l-2.407-5.36h-1.156v5.36c0 .2-.074.375-.219.531a.72.72 0 0 1-.531.219h-5.484a.745.745 0 0 1-.766-.75v-18.094a.72.72 0 0 1 .219-.531.777.777 0 0 1 .547-.219h8.28c2.688 0 4.786.606 6.298 1.813 1.52 1.199 2.281 2.922 2.281 5.172 0 2.25-1.012 4.015-3.031 5.297Zm-11.047-13.469v2.97h2.047c.414 0 .734-.134.953-.407.227-.27.344-.61.344-1.016a1.8 1.8 0 0 0-.328-1.078c-.211-.312-.532-.469-.97-.469ZM237.907 185.06h5.484c.207 0 .383.073.532.218a.706.706 0 0 1 .234.531v18.094a.73.73 0 0 1-.234.531.72.72 0 0 1-.532.219h-5.484a.707.707 0 0 1-.531-.219.745.745 0 0 1-.219-.531v-6.047h-4.547v6.047c0 .2-.074.375-.219.531a.72.72 0 0 1-.53.219h-5.485a.798.798 0 0 1-.547-.203.73.73 0 0 1-.219-.547v-18.094a.72.72 0 0 1 .219-.531.777.777 0 0 1 .547-.219h5.484c.207 0 .383.074.531.219a.735.735 0 0 1 .22.531v5.875h4.546v-5.875a.72.72 0 0 1 .219-.531.722.722 0 0 1 .531-.219ZM249.799 186.856c1.707-1.383 3.969-2.078 6.781-2.078 2.82 0 5.086.7 6.797 2.094 1.707 1.386 2.562 3.34 2.562 5.86v4.359c0 2.562-.851 4.511-2.546 5.843-1.688 1.336-3.961 2-6.813 2-2.855 0-5.125-.664-6.812-2-1.688-1.332-2.532-3.281-2.532-5.843v-4.36c0-2.539.852-4.5 2.563-5.875Zm5.265 12.063c.375.367.88.547 1.516.547.633 0 1.14-.18 1.516-.547.375-.375.562-.946.562-1.72v-4.702c0-.739-.187-1.301-.562-1.688-.375-.383-.883-.578-1.516-.578-.637 0-1.14.195-1.516.578-.367.387-.546.95-.546 1.688v4.703c0 .773.18 1.344.546 1.719ZM271.02 186.856c1.707-1.383 3.969-2.078 6.781-2.078 2.82 0 5.086.7 6.797 2.094 1.707 1.386 2.563 3.34 2.563 5.86v4.359c0 2.562-.852 4.511-2.547 5.843-1.688 1.336-3.961 2-6.813 2-2.855 0-5.125-.664-6.812-2-1.688-1.332-2.532-3.281-2.532-5.843v-4.36c0-2.539.852-4.5 2.563-5.875Zm5.266 12.063c.375.367.878.547 1.515.547.633 0 1.14-.18 1.516-.547.375-.375.562-.946.562-1.72v-4.702c0-.739-.187-1.301-.562-1.688-.375-.383-.883-.578-1.516-.578-.637 0-1.14.195-1.515.578-.368.387-.547.95-.547 1.688v4.703c0 .773.18 1.344.547 1.719ZM290.991 185.06h8.063c2.726 0 4.972.679 6.734 2.03 1.758 1.344 2.64 3.231 2.64 5.657v4.172c0 2.543-.859 4.468-2.578 5.78-1.71 1.306-3.964 1.954-6.765 1.954h-8.094a.745.745 0 0 1-.766-.75v-18.094a.72.72 0 0 1 .22-.531.777.777 0 0 1 .546-.219Zm6.234 5.452v8.688h1.829c.632 0 1.14-.192 1.515-.578.383-.383.578-.953.578-1.703v-4.172c0-1.489-.699-2.235-2.093-2.235ZM144.81 227.703h5.765v2.89h-9.219V217h3.454ZM165.125 216.874c2.101 0 3.851.665 5.25 1.985 1.406 1.312 2.11 2.953 2.11 4.922 0 1.98-.704 3.636-2.11 4.968-1.406 1.336-3.164 2-5.266 2-2.094 0-3.84-.66-5.234-1.984-1.399-1.332-2.094-2.992-2.094-4.984 0-1.977.695-3.625 2.094-4.938 1.394-1.312 3.144-1.969 5.25-1.969Zm.031 2.907c-1.062 0-1.969.386-2.719 1.156-.75.773-1.125 1.727-1.125 2.86 0 1.136.375 2.1 1.125 2.89.758.781 1.664 1.172 2.72 1.172 1.05 0 1.94-.39 2.67-1.172.728-.79 1.095-1.754 1.095-2.89 0-1.133-.367-2.087-1.094-2.86-.73-.77-1.621-1.156-2.672-1.156ZM189.772 228.093h-5.938l-1 2.5h-3.546L185.147 217h3.562l5.72 13.594h-3.688Zm-1.016-2.625-1.937-5.031-1.985 5.031ZM214.678 230.593h-3.047l-6.25-8.375v8.375h-3.25V217h3.047l6.28 8.391V217h3.22ZM229.05 216.843c2.039 0 3.828.508 5.36 1.516l-1.298 2.703a11.486 11.486 0 0 0-2.297-1.016c-.812-.27-1.496-.406-2.047-.406-1 0-1.5.328-1.5.984 0 .43.243.774.735 1.032.488.261 1.086.484 1.797.672.707.187 1.41.418 2.11.687a4.183 4.183 0 0 1 1.796 1.281c.5.594.75 1.344.75 2.25 0 1.313-.512 2.336-1.531 3.063-1.024.73-2.324 1.094-3.907 1.094a10.04 10.04 0 0 1-3.343-.579c-1.106-.382-2.063-.914-2.875-1.593l1.343-2.657a8.792 8.792 0 0 0 2.422 1.47c.938.374 1.766.562 2.485.562.562 0 .992-.098 1.297-.297.312-.195.468-.488.468-.875 0-.375-.18-.688-.53-.938-.356-.257-.798-.445-1.329-.562-.531-.125-1.11-.29-1.734-.5a15.909 15.909 0 0 1-1.72-.688 3.231 3.231 0 0 1-1.327-1.172c-.356-.539-.532-1.187-.532-1.937 0-1.238.493-2.227 1.485-2.969.988-.75 2.297-1.125 3.922-1.125Zm0 0"/></svg>